<svg id="Layer_1" data-name="Layer 1" xmlns="http://www.w3.org/2000/svg" viewBox="0 0 490.06 134.7">
  <defs>
    <style>
      .cls-1 {
        fill: #fff;
      }
    </style>
  </defs>
  <path class="cls-1" d="M126.76,34.5c-1.69-.72-8.18-3.52-9.66-4.43s-4-2.28-3.87-3.41a5.08,5.08,0,0,0-2.61-5c-2.61-1.7-7.84-4.55-8.19-5.8s.8-3.75,1-5.34,1.94-4.66,1.94-6.37.11-4.89-2.16-3.75-2.61,4.09-4.32,6.48-5.46,7.39-6.14,9-5.57,5.91-7,7.39S78.14,34,77.34,37.15s-8,16.14-11.93,20-14.34,15.8-16,18.2S38.08,91.81,37.17,94.54a130.16,130.16,0,0,0-3.52,13.3c-.23,2-1.25,11.94-1.25,13.19s-5.91,5-9.21,3.64-13.64-5.8-15.12-7.84-8.08-4.78-6.94-3.3,5.23,7.62,7.5,9.44,13,6,16.95,5,8.64-2.61,11.26-1.59,2.5,4.78,8.07,5.46,17.85,3.29,20.47,2.61,2.84-3.64,1.93-4,7.16-3.3,8.64-3.3,3.07-2.05,3.18-2.85-1.25-2-2.61-2a12.22,12.22,0,0,1-4.32-.69c-.91-.45-1.37-2.38-.23-3.63s4.32-5.23,4.66-7.39-1.14-2.85.45-4.21,3.42-3.75,3.87-2.5,3.53,10.23,4.55,12.73,2.39,10.92,2.39,12.17-.46,5.68.79,5.8,7.62.56,8.08,0,2.5-1,3.07-1,4.43,1.25,4.88-.11.91-4-.23-4.32-2.16-2.84-2.16-3.18-2.15-13.88-2.27-15.7-.57-10.22-.57-11.36.46-11,.57-12.85.47-7.27,1.26-9.21,1-5.23,1.36-7.62-1.49-4.43-2-6.94-2.39-5.8-1.93-8,2-9.33,3.41-10.12,4.55-1.14,7.28-.81,6.7,1.14,8,.81a20.21,20.21,0,0,0,4.89-2c1.14-.8,1.6-1.93,2.5-2.61s4.36-4,2-5" transform="translate(-1 -0.16)"/>
  <path class="cls-1" d="M145.14,134h11.74l-4-41.57h-15L115,134h12.83l4.52-9H144.7Zm-8.6-17.32L140.4,109l3.16-7.18h.18l.18,7.18.38,7.68Z" transform="translate(-1 -0.16)"/>
  <path class="cls-1" d="M159.74,134l9.31-41.57h15.09A20.54,20.54,0,0,1,194,94.56a14.23,14.23,0,0,1,6,6,19,19,0,0,1,2,8.91,32.19,32.19,0,0,1-1.49,10.08,20.89,20.89,0,0,1-4.41,7.74,20,20,0,0,1-7.06,5,23.91,23.91,0,0,1-9.49,1.76Zm14.6-9.38h4.5a8.37,8.37,0,0,0,4.78-1.36,10.57,10.57,0,0,0,3.32-3.59,18.27,18.27,0,0,0,1.91-5,23.81,23.81,0,0,0,.64-5.45,9.79,9.79,0,0,0-.73-4,5.5,5.5,0,0,0-2.19-2.55,7.19,7.19,0,0,0-3.77-.88h-3.41Z" transform="translate(-1 -0.16)"/>
  <path class="cls-1" d="M223.56,134.62a19.94,19.94,0,0,1-9.34-2.17,16,16,0,0,1-6.57-6.27,19.3,19.3,0,0,1-2.4-9.89,31,31,0,0,1,1.49-9.79,22.78,22.78,0,0,1,4.32-7.81,19,19,0,0,1,6.93-5.1,22.91,22.91,0,0,1,9.28-1.8A19.69,19.69,0,0,1,236.64,94a16.15,16.15,0,0,1,6.54,6.26,19.3,19.3,0,0,1,2.4,9.89,31,31,0,0,1-1.46,9.76,22.7,22.7,0,0,1-4.29,7.81,18.72,18.72,0,0,1-6.93,5.14A23.37,23.37,0,0,1,223.56,134.62Zm.3-9.89a6.22,6.22,0,0,0,4.11-1.44,11.41,11.41,0,0,0,2.89-3.82,21.54,21.54,0,0,0,1.73-5.13,26,26,0,0,0,.58-5.35,10.11,10.11,0,0,0-.7-4,5,5,0,0,0-2.07-2.46,6.52,6.52,0,0,0-3.43-.82,6.23,6.23,0,0,0-4.11,1.45A11.27,11.27,0,0,0,220,107a21.54,21.54,0,0,0-1.73,5.13,26.1,26.1,0,0,0-.58,5.36,10.11,10.11,0,0,0,.7,4,5,5,0,0,0,2.1,2.49A6.69,6.69,0,0,0,223.86,124.73Z" transform="translate(-1 -0.16)"/>
  <path class="cls-1" d="M283.51,95.79q-4.27-3.36-11.89-3.37h-16.3L246,134h12.47l2.85-12.78h8.59a21,21,0,0,0,9.55-2,14.64,14.64,0,0,0,6.17-5.6,15.66,15.66,0,0,0,2.16-8.26Q287.81,99.17,283.51,95.79Zm-8.76,13.26a5.77,5.77,0,0,1-2.16,2,7,7,0,0,1-3.46.79H263.4l2.26-10.15h4.5a5.8,5.8,0,0,1,4.11,1.2,4.31,4.31,0,0,1,1.24,3.28A5.32,5.32,0,0,1,274.75,109.05Z" transform="translate(-1 -0.16)"/>
  <path class="cls-1" d="M330.27,92.42l-2.13,9.64H315.36L308.25,134H295.83L303,102.06H290.12l2.19-9.64Z" transform="translate(-1 -0.16)"/>
  <path class="cls-1" d="M348.37,134h11.74l-4-41.57h-15L318.25,134h12.84l4.52-9h12.32Zm-8.6-17.32,3.85-7.68,3.17-7.18H347l.18,7.18.38,7.68Z" transform="translate(-1 -0.16)"/>
  <path class="cls-1" d="M363,134l9.31-41.57H387.4a20.63,20.63,0,0,1,9.85,2.14,14.12,14.12,0,0,1,6,6,18.85,18.85,0,0,1,2,8.91,32.19,32.19,0,0,1-1.49,10.08,20.89,20.89,0,0,1-4.41,7.74,20,20,0,0,1-7.06,5,24.09,24.09,0,0,1-9.49,1.76Zm14.6-9.38h4.5a8.37,8.37,0,0,0,4.78-1.36,10.57,10.57,0,0,0,3.32-3.59,18.27,18.27,0,0,0,1.91-5,23.81,23.81,0,0,0,.64-5.45,9.79,9.79,0,0,0-.73-4,5.5,5.5,0,0,0-2.19-2.55,7.19,7.19,0,0,0-3.77-.88h-3.41Z" transform="translate(-1 -0.16)"/>
  <path class="cls-1" d="M425.78,134.62a19.94,19.94,0,0,1-9.34-2.17,16.25,16.25,0,0,1-6.57-6.27,19.3,19.3,0,0,1-2.4-9.89A31,31,0,0,1,409,106.5a23,23,0,0,1,4.32-7.81,19,19,0,0,1,6.94-5.1,22.87,22.87,0,0,1,9.27-1.8A19.79,19.79,0,0,1,438.86,94a16.15,16.15,0,0,1,6.54,6.26,19.21,19.21,0,0,1,2.41,9.89,31.38,31.38,0,0,1-1.46,9.76,23,23,0,0,1-4.29,7.81,18.75,18.75,0,0,1-6.94,5.14A23.37,23.37,0,0,1,425.78,134.62Zm.31-9.89a6.19,6.19,0,0,0,4.1-1.44,11.41,11.41,0,0,0,2.89-3.82,21.56,21.56,0,0,0,1.74-5.13,26.72,26.72,0,0,0,.58-5.35,10.48,10.48,0,0,0-.7-4,5.19,5.19,0,0,0-2.07-2.46,6.56,6.56,0,0,0-3.44-.82,6.23,6.23,0,0,0-4.11,1.45,11.5,11.5,0,0,0-2.89,3.81,21.54,21.54,0,0,0-1.73,5.13,26.1,26.1,0,0,0-.58,5.36,10.11,10.11,0,0,0,.7,4,5.12,5.12,0,0,0,2.1,2.49A6.63,6.63,0,0,0,426.09,124.73Z" transform="translate(-1 -0.16)"/>
  <path class="cls-1" d="M470.38,119.32H479l-.48,1.26a7.32,7.32,0,0,1-1.43,2.36,6.62,6.62,0,0,1-2.34,1.64,8.42,8.42,0,0,1-3.29.6A7.72,7.72,0,0,1,467,124a7,7,0,0,1-2.56-3.34,14.18,14.18,0,0,1-.82-5,19.94,19.94,0,0,1,.73-5.54,14.72,14.72,0,0,1,2.07-4.41,10.41,10.41,0,0,1,3.13-3,7.57,7.57,0,0,1,3.93-1.07,5.52,5.52,0,0,1,4.29,1.57,7,7,0,0,1,1.67,4.22l11.62-2a14.58,14.58,0,0,0-8.91-12.06,21,21,0,0,0-8.43-1.61,22.87,22.87,0,0,0-9.61,1.92,19.75,19.75,0,0,0-7.1,5.41,24.3,24.3,0,0,0-4.35,7.87,30.16,30.16,0,0,0-1.49,9.61,20.34,20.34,0,0,0,2.13,9.63,15.33,15.33,0,0,0,14,8.44,13.9,13.9,0,0,0,5.87-1.13,11,11,0,0,0,4.17-3.31c.16-.2.31-.43.46-.65l-.94,4.46h8l5.59-22.74h-18.3Z" transform="translate(-1 -0.16)"/>
</svg>
