<?xml version="1.0" encoding="utf-8"?>
<!-- Generator: Adobe Illustrator 25.1.0, SVG Export Plug-In . SVG Version: 6.00 Build 0)  -->
<svg version="1.1" id="Layer_1" xmlns="http://www.w3.org/2000/svg" xmlns:xlink="http://www.w3.org/1999/xlink" x="0px" y="0px"
	 viewBox="0 0 130 140" style="enable-background:new 0 0 130 140;" xml:space="preserve">
<style type="text/css">
	.st0{fill:#FFFFFF;}
</style>
<path class="st0" d="M127.05,37.57c-1.68-0.71-8.14-3.5-9.61-4.41s-3.96-2.27-3.85-3.4c0.21-2.03-0.81-3.99-2.6-4.98
	c-2.6-1.69-7.8-4.52-8.15-5.77s0.8-3.73,1.02-5.32s1.92-4.64,1.92-6.33s0.11-4.86-2.15-3.73s-2.6,4.07-4.3,6.44s-5.43,7.35-6.1,8.93
	s-5.54,5.88-7.01,7.35S78.66,37,77.87,40.17S69.96,56.23,66,60.07c-3.61,3.5-13.97,15.33-15.95,18.1c-1.7,2.38-11.2,16.4-12.1,19.11
	c-1.4,4.34-2.57,8.76-3.51,13.23c-0.23,2.04-1.24,11.88-1.24,13.12s-5.88,4.98-9.16,3.62s-13.57-5.77-15.04-7.8s-8.03-4.75-6.9-3.28
	s5.2,7.58,7.46,9.39s12.9,6,16.85,4.98s8.6-2.6,11.2-1.59c2.6,1.01,2.49,4.75,8.03,5.43s17.76,3.28,20.36,2.6s2.82-3.62,1.92-3.96
	s7.12-3.28,8.6-3.28s3.05-2.04,3.17-2.83s-1.25-2.04-2.6-2.04c-1.46,0.03-2.92-0.2-4.3-0.68c-0.9-0.45-1.36-2.37-0.22-3.62
	s4.29-5.2,4.64-7.35s-1.13-2.83,0.45-4.19s3.39-3.73,3.85-2.48s3.51,10.17,4.52,12.66s2.38,10.86,2.38,12.1s-0.46,5.65,0.79,5.77
	s7.57,0.56,8.03,0s2.49-1.02,3.06-1.02s4.4,1.24,4.86-0.11s0.9-3.96-0.23-4.29s-2.15-2.83-2.15-3.17s-2.15-13.8-2.26-15.61
	s-0.57-10.17-0.57-11.31s0.46-10.97,0.57-12.78s0.47-7.24,1.25-9.16s1.01-5.2,1.35-7.58s-1.47-4.41-2.04-6.9
	c-0.56-2.49-2.38-5.77-1.92-7.92s2.04-9.28,3.39-10.06s4.52-1.13,7.24-0.8s6.67,1.13,7.92,0.8c1.7-0.47,3.34-1.15,4.86-2.04
	c1.13-0.8,1.59-1.92,2.49-2.6s4.33-4.01,2.04-4.98"/>
</svg>
