<?xml version="1.0" encoding="utf-8"?>
<!-- Generator: Adobe Illustrator 24.3.0, SVG Export Plug-In . SVG Version: 6.00 Build 0)  -->
<svg version="1.1" id="Layer_1" xmlns="http://www.w3.org/2000/svg" xmlns:xlink="http://www.w3.org/1999/xlink" x="0px" y="0px"
	 viewBox="0 0 505.8 133.2" style="enable-background:new 0 0 505.8 133.2;" xml:space="preserve">
<style type="text/css">
	.st0{clip-path:url(#SVGID_2_);}
	.st1{enable-background:new    ;}
	.st2{fill:#FFFFFF;}
</style>
<g>
	<g>
		<defs>
			<rect id="SVGID_1_" width="502.6" height="135.8"/>
		</defs>
		<clipPath id="SVGID_2_">
			<use xlink:href="#SVGID_1_"  style="overflow:visible;"/>
		</clipPath>
		<g class="st0">
			<g class="st1">
				<path class="st2" d="M145.3,125.5h-10.8l-3.9,7.6h-14l23.7-39.9h16.9l2.3,39.9h-14.4L145.3,125.5z M145.6,116.7l0.4-13.3h-0.2
					l-3.4,6.8l-3.4,6.5H145.6z"/>
				<path class="st2" d="M205.2,113.2c-3.4,12.7-11.8,20-24.3,20h-19.6L172,93.3h19.6C204.2,93.2,208.7,100.4,205.2,113.2z
					 M190.8,113.2c1.8-6.8,1.3-9.9-3.9-9.9h-3.5l-5.3,19.8h3.5C186.9,123.1,189,120,190.8,113.2z"/>
				<path class="st2" d="M248.8,113.2c-3.5,13.1-13.1,20.6-25.8,20.6c-12.6,0-18.3-7.5-14.8-20.6s13.2-20.6,25.9-20.6
					C246.8,92.6,252.3,100.1,248.8,113.2z M222.6,113.2c-1.9,7-0.9,10,3.3,10c4.1,0,6.7-3,8.5-10c1.9-7,0.9-10-3.2-10
					C227.1,103.2,224.5,106.2,222.6,113.2z"/>
			</g>
			<g class="st1">
				<path class="st2" d="M292.6,107.2c-2.3,8.6-9.2,13.3-20.3,13.3h-7.1l-3.4,12.7h-14.1l10.7-39.9h21.2
					C290.7,93.2,295.1,97.8,292.6,107.2z M278.5,107c0.7-2.6-0.5-3.8-4-3.8h-4.8l-2,7.5h4.8C276,110.7,277.8,109.6,278.5,107z"/>
			</g>
			<g class="st1">
				<path class="st2" d="M333.8,103.5h-12.5l-7.9,29.6h-14.1l7.9-29.6h-12.5l2.8-10.3h39.1L333.8,103.5z"/>
			</g>
			<g class="st1">
				<path class="st2" d="M349.3,125.5h-10.8l-3.9,7.6h-14l23.7-39.9h16.9l2.3,39.9h-14.4L349.3,125.5z M349.6,116.7l0.4-13.3h-0.2
					l-3.4,6.8l-3.4,6.5H349.6z"/>
				<path class="st2" d="M409.2,113.2c-3.4,12.7-11.8,20-24.3,20h-19.6l10.7-40h19.6C408.2,93.2,412.6,100.4,409.2,113.2z
					 M394.8,113.2c1.8-6.8,1.3-9.9-3.9-9.9h-3.5l-5.3,19.8h3.5C390.8,123.1,393,120,394.8,113.2z"/>
				<path class="st2" d="M452.8,113.2c-3.5,13.1-13.1,20.6-25.8,20.6c-12.6,0-18.3-7.5-14.8-20.6s13.2-20.6,25.9-20.6
					C450.8,92.6,456.3,100.1,452.8,113.2z M426.6,113.2c-1.9,7-0.9,10,3.3,10c4.1,0,6.7-3,8.5-10c1.9-7,0.9-10-3.2-10
					C431.1,103.2,428.5,106.2,426.6,113.2z"/>
			</g>
			<g class="st1">
				<path class="st2" d="M477.1,110.6h18.5l-6,22.5h-9.3l0.7-4.5c-2.9,3.3-6.9,5.1-12.2,5.1c-10.3,0-16.7-6.8-13.1-20.5
					c3.5-13.1,13.2-20.7,26.2-20.7c9.9,0,14.5,3.1,15.7,11l-14.4,4.7c0.4-3.6-1-5.1-3.7-5.1c-4.7,0-7.6,3-9.5,10
					c-2,7.6-0.4,10.3,4.5,10.3c3.4,0,6.1-1.3,6.9-4.2v-0.1h-6.7L477.1,110.6z"/>
			</g>
			<g>
				<path class="st2" d="M125.1,34.2c-1.7-0.7-8.1-3.5-9.6-4.4s-4-2.3-3.8-3.4c0.2-2-0.8-4-2.6-5c-2.6-1.7-7.8-4.5-8.1-5.8
					s0.8-3.7,1-5.3s1.9-4.6,1.9-6.3s0.1-4.9-2.1-3.7s-2.6,4.1-4.3,6.4S92,14,91.3,15.6s-5.5,5.9-7,7.3s-7.6,10.6-8.4,13.8
					S68,52.8,64,56.7S49.7,72.4,48,74.8S36.9,91.2,36,93.9c-1.4,4.3-2.6,8.8-3.5,13.2c-0.2,2-1.2,11.9-1.2,13.1s-5.9,5-9.2,3.6
					S8.5,118.1,7,116s-8-4.7-6.9-3.3s5.2,7.6,7.5,9.4s12.9,6,16.9,5s8.6-2.6,11.2-1.6s2.5,4.8,8,5.4s17.8,3.3,20.4,2.6
					s2.8-3.6,1.9-4s7.1-3.3,8.6-3.3s3-2,3.2-2.8s-1.2-2-2.6-2c-1.5,0-2.9-0.2-4.3-0.7c-0.9-0.5-1.4-2.4-0.2-3.6s4.3-5.2,4.6-7.3
					s-1.1-2.8,0.4-4.2s3.4-3.7,3.8-2.5s3.5,10.2,4.5,12.7s2.4,10.9,2.4,12.1s-0.5,5.7,0.8,5.8s7.6,0.6,8,0s2.5-1,3.1-1
					s4.4,1.2,4.9-0.1s0.9-4-0.2-4.3s-2.1-2.8-2.1-3.2s-2.1-13.8-2.3-15.6S98,99.3,98,98.2s0.5-11,0.6-12.8s0.5-7.2,1.3-9.2
					s1-5.2,1.3-7.6s-1.5-4.4-2-6.9s-2.4-5.8-1.9-7.9s2-9.3,3.4-10.1s4.5-1.1,7.2-0.8s6.7,1.1,7.9,0.8c1.7-0.5,3.3-1.1,4.9-2
					c1.1-0.8,1.6-1.9,2.5-2.6S127.4,35.1,125.1,34.2"/>
			</g>
		</g>
	</g>
</g>
</svg>
