<?xml version="1.0" encoding="utf-8"?>
<!-- Generator: Adobe Illustrator 23.0.3, SVG Export Plug-In . SVG Version: 6.00 Build 0)  -->
<svg version="1.1" id="Layer_1" xmlns="http://www.w3.org/2000/svg" xmlns:xlink="http://www.w3.org/1999/xlink" x="0px" y="0px"
	 viewBox="0 0 505.8 153.9" style="enable-background:new 0 0 505.8 153.9;" xml:space="preserve">
<style type="text/css">
	.st0{fill:#FFFFFF;}
</style>
<g>
	<g>
		<path class="st0" d="M125.1,34.2c-1.7-0.7-8.1-3.5-9.6-4.4s-4-2.3-3.8-3.4c0.2-2-0.8-4-2.6-5c-2.6-1.7-7.8-4.5-8.1-5.8
			s0.8-3.7,1-5.3s1.9-4.6,1.9-6.3s0.1-4.9-2.1-3.7s-2.6,4.1-4.3,6.4S92,14,91.3,15.6s-5.5,5.9-7,7.3s-7.6,10.6-8.4,13.8
			S68,52.8,64,56.7s-14.3,15.7-16,18.1S36.9,91.2,36,93.9c-1.4,4.3-2.6,8.8-3.5,13.2c-0.2,2-1.2,11.9-1.2,13.1s-5.9,5-9.2,3.6
			S8.5,118.1,7,116s-8-4.7-6.9-3.3s5.2,7.6,7.5,9.4s12.9,6,16.9,5s8.6-2.6,11.2-1.6s2.5,4.8,8,5.4s17.8,3.3,20.4,2.6
			c2.6-0.7,2.8-3.6,1.9-4s7.1-3.3,8.6-3.3s3-2,3.2-2.8s-1.2-2-2.6-2c-1.5,0-2.9-0.2-4.3-0.7c-0.9-0.5-1.4-2.4-0.2-3.6
			s4.3-5.2,4.6-7.3s-1.1-2.8,0.4-4.2s3.4-3.7,3.8-2.5s3.5,10.2,4.5,12.7s2.4,10.9,2.4,12.1s-0.5,5.7,0.8,5.8s7.6,0.6,8,0
			s2.5-1,3.1-1s4.4,1.2,4.9-0.1s0.9-4-0.2-4.3s-2.1-2.8-2.1-3.2s-2.1-13.8-2.3-15.6S98,99.3,98,98.2s0.5-11,0.6-12.8
			s0.5-7.2,1.3-9.2s1-5.2,1.3-7.6s-1.5-4.4-2-6.9s-2.4-5.8-1.9-7.9s2-9.3,3.4-10.1s4.5-1.1,7.2-0.8s6.7,1.1,7.9,0.8
			c1.7-0.5,3.3-1.1,4.9-2c1.1-0.8,1.6-1.9,2.5-2.6S127.4,35.1,125.1,34.2"/>
	</g>
</g>
<path class="st0" d="M149.6,124.4h-10.8l-4.1,7.6h-14.1l24.5-40h17l1.5,40h-14.4L149.6,124.4z M150.1,115.6l0.6-13.3h-0.2L147,109
	l-3.5,6.6H150.1z"/>
<path class="st0" d="M210,112c-3.6,12.7-12.1,20-24.7,20h-19.7l11.5-40h19.6C209.3,92,213.7,99.3,210,112z M195.6,112
	c2-6.9,1.5-9.9-3.7-9.9h-3.5l-5.7,19.9h3.5C191.4,121.9,193.6,118.8,195.6,112z"/>
<path class="st0" d="M253.2,112c-3.7,13.1-13.4,20.6-26.2,20.6c-12.7,0-18.2-7.5-14.5-20.6c3.7-13.1,13.6-20.6,26.2-20.6
	C251.5,91.4,256.9,98.9,253.2,112z M227,112c-2,7-1,10,3.1,10c4.1,0,6.7-3,8.7-10c2-7,1.1-10-3-10C231.6,102,228.9,105,227,112z"/>
<path class="st0" d="M296.7,106c-2.4,8.6-9.4,13.3-20.5,13.3H269l-3.6,12.7h-14.1l11.3-40h21.2C295,92,299.3,96.6,296.7,106z
	 M282.6,105.8c0.7-2.6-0.5-3.8-3.9-3.8h-4.8l-2.1,7.5h4.8C280,109.6,281.9,108.4,282.6,105.8z"/>
<path class="st0" d="M339.2,102.3h-12.5l-8.3,29.7h-14.1l8.3-29.7H300L303,92h39.1L339.2,102.3z"/>
<path class="st0" d="M355.6,124.4h-10.8l-4,7.6h-14.1l24.1-40h17l1.9,40h-14.4L355.6,124.4z M355.9,115.6l0.5-13.3h-0.2l-3.5,6.8
	l-3.5,6.6H355.9z"/>
<path class="st0" d="M415.9,112c-3.5,12.7-11.9,20-24.5,20h-19.7l11.1-40h19.6C415,92,419.4,99.3,415.9,112z M401.5,112
	c1.9-6.9,1.4-9.9-3.8-9.9h-3.5l-5.5,19.9h3.5C397.4,121.9,399.6,118.8,401.5,112z"/>
<path class="st0" d="M459.7,112c-3.6,13.1-13.2,20.6-26,20.6c-12.7,0-18.3-7.5-14.7-20.6c3.6-13.1,13.4-20.6,26-20.6
	C457.7,91.4,463.2,98.9,459.7,112z M433.4,112c-1.9,7-0.9,10,3.2,10c4.1,0,6.7-3,8.6-10c1.9-7,1-10-3.1-10
	C438,102,435.3,105,433.4,112z"/>
<path class="st0" d="M484.2,109.4h18.5l-6.1,22.6h-9.3l0.7-4.5c-2.9,3.3-6.9,5.2-12.3,5.2c-10.4,0-16.8-6.9-13-20.5
	c3.6-13.1,13.4-20.7,26.4-20.7c9.9,0,14.5,3.1,15.7,11l-14.4,4.7c0.4-3.6-1-5.1-3.6-5.1c-4.7,0-7.6,3-9.5,10
	c-2.1,7.6-0.5,10.4,4.5,10.4c3.5,0,6.1-1.3,6.9-4.2l0-0.1h-6.7L484.2,109.4z"/>
</svg>
