<svg id="Layer_1" data-name="Layer 1" xmlns="http://www.w3.org/2000/svg" xmlns:xlink="http://www.w3.org/1999/xlink" viewBox="0 0 28.592 26.168"><defs><style>.cls-1{fill:none;}.cls-2{clip-path:url(#clip-path);}.cls-3{fill:#fff;}</style><clipPath id="clip-path" transform="translate(-0.5 -0.5)"><rect class="cls-1" x="0.5" y="0.5" width="28.592" height="26.168"/></clipPath></defs><title>cart-icon</title><g class="cls-2"><path class="cls-3" d="M23.138,21.677A1.426,1.426,0,1,0,24.564,23.1a1.427,1.427,0,0,0-1.426-1.426m0,4.991A3.565,3.565,0,1,1,26.7,23.1a3.569,3.569,0,0,1-3.565,3.565" transform="translate(-0.5 -0.5)"/><path class="cls-3" d="M9.615,15.865H24.583l2.073-8.378H7.613ZM25.42,18H8.771a1.069,1.069,0,0,1-1.04-.821L4.255,2.639H1.569A1.07,1.07,0,0,1,1.569.5H5.1a1.069,1.069,0,0,1,1.04.821L7.1,5.348H28.023a1.07,1.07,0,0,1,1.038,1.327l-2.6,10.517A1.069,1.069,0,0,1,25.42,18" transform="translate(-0.5 -0.5)"/><path class="cls-3" d="M10.2,21.677A1.426,1.426,0,1,0,11.623,23.1,1.427,1.427,0,0,0,10.2,21.677m0,4.991A3.565,3.565,0,1,1,13.762,23.1,3.569,3.569,0,0,1,10.2,26.668" transform="translate(-0.5 -0.5)"/></g></svg>